<svg width="19" height="19" viewBox="0 0 19 19" fill="none" xmlns="http://www.w3.org/2000/svg">
<path fill-rule="evenodd" clip-rule="evenodd" d="M7.72518 0.0915693C8.22692 0.322373 8.44656 0.916221 8.21576 1.41797L6.39106 5.38468H12.6086L10.7839 1.41797C10.5531 0.916221 10.7727 0.322373 11.2745 0.0915693C11.7762 -0.139235 12.3701 0.0804064 12.6009 0.582151L14.81 5.38468H16.72C17.928 5.38468 18.8603 6.44737 18.703 7.64507L17.501 16.7989C17.3703 17.7943 16.5219 18.5385 15.518 18.5385H3.48164C2.47772 18.5385 1.62937 17.7943 1.49866 16.7989L0.296643 7.64507C0.139369 6.44737 1.07164 5.38468 2.27962 5.38468H4.1896L6.39878 0.582151C6.62958 0.0804064 7.22343 -0.139235 7.72518 0.0915693ZM2.27962 7.38468H16.72L15.518 16.5385H3.48164L2.27962 7.38468Z" fill="white"/>
</svg>
