<svg width="45" height="32" viewBox="0 0 45 32" fill="none" xmlns="http://www.w3.org/2000/svg">
<path d="M42.6777 13.8587V2.75852C42.6777 1.23749 41.4411 0 39.9213 0H5.07869C3.55885 0 2.32234 1.23749 2.32234 2.75852V13.8588C1.00933 14.0588 0 15.1961 0 16.5651V23.4357C0 23.9154 0.388638 24.3044 0.868013 24.3044H1.79794V28.59C1.79794 29.0697 2.18658 29.4587 2.66596 29.4587H4.23289V31.1313C4.23289 31.6111 4.62153 32 5.10091 32C5.58028 32 5.96892 31.6111 5.96892 31.1313V29.4587H39.0312V31.1313C39.0312 31.6111 39.4197 32 39.8992 32C40.3787 32 40.7672 31.6111 40.7672 31.1313V29.4587H42.3342C42.8136 29.4587 43.2022 29.0697 43.2022 28.59V24.3044H44.132C44.6115 24.3044 45 23.9154 45 23.4357V16.5651C45 15.1961 43.9907 14.0586 42.6777 13.8587ZM4.05825 2.75852C4.05825 2.19549 4.51598 1.73739 5.07857 1.73739H39.9212C40.4838 1.73739 40.9415 2.19549 40.9415 2.75852V13.8276H37.8936C38.5001 13.1742 39.117 12.4871 39.7558 11.752C40.0399 11.425 40.0398 10.9385 39.7557 10.6116C37.2445 7.72318 35.1419 5.61896 32.2565 3.10658C31.9299 2.82211 31.4437 2.82211 31.117 3.10658C28.2315 5.61908 26.129 7.72329 23.6179 10.6116C23.3338 10.9385 23.3337 11.425 23.6178 11.752C24.2568 12.4872 24.8736 13.1743 25.48 13.8276H19.5193C20.1258 13.1742 20.7427 12.4871 21.3816 11.752C21.6657 11.425 21.6657 10.9385 21.3815 10.6116C18.8706 7.72364 16.768 5.61942 13.8823 3.10658C13.5557 2.82211 13.0695 2.82211 12.7428 3.10658C9.85704 5.61942 7.75448 7.72364 5.24361 10.6116C4.95936 10.9385 4.95936 11.425 5.24349 11.752C5.88247 12.4871 6.49934 13.1742 7.10579 13.8276H4.05825V2.75852ZM27.8751 13.8276C27.0765 13.0071 26.2697 12.1352 25.4273 11.1819C27.5024 8.8321 29.3395 6.99347 31.6869 4.91729C34.0342 6.99335 35.8714 8.8321 37.9465 11.1819C37.1043 12.1352 36.2974 13.0071 35.4987 13.8276H27.8751ZM9.50104 13.8276C8.70235 13.0069 7.89545 12.1352 7.05313 11.1819C9.1278 8.83256 10.9653 6.99359 13.3128 4.91729C15.6602 6.99359 17.4978 8.83256 19.5724 11.1819C18.7302 12.1352 17.9233 13.0069 17.1245 13.8276H9.50104ZM41.4661 27.7213H3.53397V24.3044H41.4661V27.7213ZM43.264 22.567H1.73603V16.5651C1.73603 16.0137 2.18438 15.565 2.73551 15.565H42.2645C42.8156 15.565 43.264 16.0137 43.264 16.5651V22.567Z" fill="white"/>
</svg>
