<svg width="18" height="18" viewBox="0 0 18 18" fill="none" xmlns="http://www.w3.org/2000/svg">
<path fill-rule="evenodd" clip-rule="evenodd" d="M12.3534 0H4.70839C2.11219 0 0 2.11229 0 4.70849V12.3535C0 14.9498 2.11219 17.062 4.70839 17.062H12.3534C14.9498 17.062 17.062 14.9497 17.062 12.3535V4.70849C17.0621 2.11229 14.9498 0 12.3534 0ZM15.5483 12.3535C15.5483 14.1151 14.1151 15.5482 12.3535 15.5482H4.70839C2.94691 15.5483 1.51382 14.1151 1.51382 12.3535V4.70849C1.51382 2.94701 2.94691 1.51382 4.70839 1.51382H12.3534C14.115 1.51382 15.5482 2.94701 15.5482 4.70849V12.3535H15.5483ZM8.53121 4.13477C6.10697 4.13477 4.13477 6.10697 4.13477 8.53121C4.13477 10.9553 6.10697 12.9275 8.53121 12.9275C10.9554 12.9275 12.9277 10.9553 12.9277 8.53121C12.9277 6.10697 10.9554 4.13477 8.53121 4.13477ZM8.53121 11.4135C6.9418 11.4135 5.64859 10.1205 5.64859 8.53111C5.64859 6.9416 6.9417 5.64849 8.53121 5.64849C10.1207 5.64849 11.4138 6.9416 11.4138 8.53111C11.4138 10.1205 10.1206 11.4135 8.53121 11.4135ZM12.3279 3.17604C12.5339 2.96915 12.8204 2.85107 13.1121 2.85107C13.4048 2.85107 13.6914 2.96915 13.8973 3.17604C14.1041 3.38192 14.2222 3.66854 14.2222 3.96121C14.2222 4.25287 14.1041 4.53949 13.8973 4.74638C13.6904 4.95226 13.4048 5.07135 13.1121 5.07135C12.8204 5.07135 12.5338 4.95226 12.3279 4.74638C12.121 4.53949 12.002 4.25298 12.002 3.96121C12.002 3.66854 12.1209 3.38192 12.3279 3.17604Z" fill="#ABABAB"/>
</svg>
