<svg width="27" height="32" viewBox="0 0 27 32" fill="none" xmlns="http://www.w3.org/2000/svg">
<path d="M1.10846 29.5646L3.23629 31.6956C3.63484 32.0967 4.28044 32.1045 4.68243 31.7005C5.08442 31.2966 5.08819 30.6447 4.68976 30.244L2.55934 28.1136C1.79748 27.3516 1.91783 25.9437 2.82234 25.0393L4.59979 23.2618L5.07128 23.7334C5.2706 23.9327 5.53339 24.0339 5.79693 24.0339C6.02621 24.0339 6.25613 23.9575 6.44566 23.8026L19.1611 13.4184C19.3364 13.4319 19.5126 13.4407 19.6902 13.4407C21.4853 13.4407 23.173 12.7419 24.4422 11.4724C25.7115 10.2031 26.4107 8.51563 26.4107 6.72041C26.4107 4.9254 25.7116 3.2377 24.4422 1.96837C23.1731 0.699041 21.4854 0 19.6903 0C17.8953 0 16.2076 0.699041 14.9383 1.96826C13.669 3.23759 12.97 4.92529 12.97 6.7203C12.97 6.89786 12.9788 7.07424 12.9924 7.24954L2.60815 19.9648C2.2749 20.3726 2.30496 20.9667 2.67732 21.3392L3.14891 21.8108L1.37146 23.5881C-0.348772 25.3082 -0.466859 27.9891 1.10846 29.5646ZM18.4121 7.99846C16.4301 6.01641 15.8819 3.93286 16.3876 3.42108C16.3881 3.42043 16.3887 3.42 16.3893 3.41936C17.2711 2.53758 18.4434 2.05198 19.6903 2.05198C20.9372 2.05198 22.1097 2.53769 22.9914 3.41936C23.8732 4.30113 24.3588 5.47349 24.3588 6.7203C24.3588 7.96733 23.8731 9.13969 22.9914 10.0215C22.4826 10.5302 20.3967 9.98289 18.4121 7.99846ZM15.0267 6.91478C15.4931 7.76617 16.1426 8.63113 16.961 9.44945C17.7801 10.2685 18.6454 10.9172 19.4972 11.384C18.5571 11.2211 17.2585 10.8907 16.3892 10.0215C15.5515 9.18354 15.1897 7.85452 15.0267 6.91478ZM4.78436 20.5441L13.6555 9.68142C13.9774 10.3363 14.4073 10.9413 14.9382 11.4724C15.4694 12.0036 16.0745 12.4333 16.7293 12.7552L5.86653 21.6262L4.78436 20.5441Z" fill="white"/>
</svg>
