<svg width="17" height="16" viewBox="0 0 17 16" fill="none" xmlns="http://www.w3.org/2000/svg">
<path fill-rule="evenodd" clip-rule="evenodd" d="M2.49031 0.575379C2.09979 0.184855 1.46662 0.184855 1.0761 0.575379C0.685572 0.965903 0.685572 1.59907 1.0761 1.98959L7.08676 8.00026L1.07661 14.0104C0.686091 14.4009 0.68609 15.0341 1.07661 15.4246C1.46714 15.8151 2.1003 15.8151 2.49083 15.4246L8.50098 9.41447L14.5111 15.4246C14.9016 15.8151 15.5348 15.8151 15.9253 15.4246C16.3159 15.0341 16.3159 14.4009 15.9253 14.0104L9.91519 8.00026L15.9259 1.98959C16.3164 1.59907 16.3164 0.965903 15.9259 0.575379C15.5353 0.184855 14.9022 0.184855 14.5116 0.575379L8.50098 6.58605L2.49031 0.575379Z" fill="#E3BF77"/>
</svg>
