<svg width="13" height="13" viewBox="0 0 13 13" fill="none" xmlns="http://www.w3.org/2000/svg">
<path d="M12.9938 10.2577C13.0213 10.4688 12.957 10.6522 12.8011 10.8082L10.9708 12.6247C10.8882 12.7165 10.7804 12.7945 10.6474 12.8587C10.5143 12.9229 10.3836 12.9642 10.2552 12.9826C10.246 12.9826 10.2184 12.9849 10.1725 12.9895C10.1267 12.9941 10.0671 12.9964 9.9937 12.9964C9.81934 12.9964 9.53719 12.9666 9.14726 12.9069C8.75733 12.8473 8.28027 12.7004 7.71606 12.4665C7.15172 12.2326 6.51181 11.8816 5.79619 11.4137C5.08058 10.9459 4.31905 10.3036 3.51167 9.48703C2.86944 8.85396 2.3373 8.24843 1.91526 7.67044C1.49322 7.09241 1.15375 6.55797 0.896858 6.06712C0.639941 5.57627 0.447271 5.1313 0.318824 4.73219C0.190377 4.33309 0.103216 3.98903 0.0573424 3.70003C0.0114685 3.41102 -0.00688109 3.18395 0.0022937 3.0188C0.0114685 2.85365 0.0160559 2.76191 0.0160559 2.74356C0.0344055 2.61511 0.075692 2.48437 0.139916 2.35133C0.204139 2.2183 0.282125 2.1105 0.373873 2.02792L2.20424 0.197553C2.33269 0.0691063 2.47949 0.00488281 2.64463 0.00488281C2.7639 0.00488281 2.86941 0.0392883 2.96116 0.108099C3.05291 0.17691 3.1309 0.261777 3.19512 0.3627L4.66767 3.15642C4.75025 3.30322 4.77318 3.46378 4.73648 3.6381C4.69978 3.81242 4.6218 3.95922 4.50253 4.07849L3.82818 4.75284C3.80983 4.77118 3.79377 4.801 3.78001 4.84229C3.76625 4.88358 3.75937 4.91798 3.75937 4.94551C3.79607 5.13818 3.87864 5.35837 4.00709 5.60609C4.11719 5.82629 4.28692 6.09465 4.51629 6.41118C4.74566 6.72771 5.07136 7.09238 5.4934 7.50525C5.90627 7.92733 6.27326 8.25529 6.59438 8.48929C6.91543 8.72316 7.18388 8.89525 7.39949 9.00535C7.6151 9.11545 7.78024 9.18196 7.8949 9.20483L8.06689 9.23926C8.08524 9.23926 8.11512 9.23236 8.15636 9.21862C8.19765 9.20483 8.22747 9.1888 8.24584 9.17043L9.03026 8.37222C9.1955 8.22545 9.38808 8.15205 9.6083 8.15205C9.76431 8.15205 9.8881 8.17955 9.97985 8.23462H9.99359L12.6497 9.80351C12.8424 9.92287 12.9571 10.0742 12.9938 10.2577Z" fill="#E3BF77"/>
</svg>
