<svg width="42" height="34" viewBox="0 0 42 34" fill="none" xmlns="http://www.w3.org/2000/svg">
<path fill-rule="evenodd" clip-rule="evenodd" d="M41.3909 8.53821L41.3633 30.3691C41.3627 30.8014 41.2633 31.211 41.0862 31.5764C41.0469 31.6577 41.0038 31.7366 40.9571 31.8133C40.9104 31.8899 40.8601 31.964 40.8064 32.0355C40.2967 32.715 39.4843 33.1549 38.5716 33.1537C38.456 33.1536 38.3418 33.1463 38.2299 33.1324C36.9393 32.9724 35.92 31.927 35.7992 30.6256C35.7911 30.5388 35.787 30.4509 35.7871 30.3621L35.8224 2.68837C35.8233 1.89363 36.312 1.21999 37.0671 0.972299C37.8225 0.724549 38.615 0.977788 39.0865 1.61747L39.1482 1.70127C39.7017 2.45204 40.1629 3.26984 40.5192 4.13196C41.0996 5.5363 41.3929 7.01883 41.3909 8.53821ZM37.5786 2.53109C37.4633 2.56893 37.4631 2.65728 37.4631 2.69042L37.4408 20.1682L39.7357 20.1712L39.7505 8.53611C39.7522 7.23351 39.5007 5.96249 39.0031 4.75855C38.6977 4.01953 38.3023 3.31844 37.8277 2.67465L37.7659 2.59086C37.7518 2.57158 37.7203 2.52882 37.66 2.52134C37.6372 2.51851 37.6103 2.52071 37.5786 2.53109ZM38.5739 31.513C39.0089 31.5136 39.3883 31.2707 39.5833 30.9133C39.6719 30.7508 39.7225 30.5647 39.7227 30.367L39.7336 21.8118L37.4387 21.8089L37.4278 30.3641C37.427 30.9968 37.9408 31.5127 38.5739 31.513ZM9.59379 18.1709C9.59379 11.3167 15.17 5.74048 22.0242 5.74048C28.8784 5.74048 34.4548 11.3167 34.4548 18.1709C34.4548 25.0251 28.8784 30.6014 22.0242 30.6014C15.1701 30.6014 9.59379 25.0251 9.59379 18.1709ZM11.2343 18.1708C11.2343 24.1204 16.0747 28.9607 22.0242 28.9607C27.9738 28.9607 32.8141 24.1204 32.8141 18.1708C32.8141 12.2213 27.9738 7.38102 22.0242 7.38102C16.0746 7.38102 11.2343 12.2214 11.2343 18.1708ZM9.28798 1.42692C8.83471 1.42603 8.46713 1.79304 8.46646 2.24603L8.45732 8.36787C8.45585 9.32196 7.78216 10.1233 6.84895 10.2946L6.30108 10.2938L6.3131 2.24291C6.31377 1.78992 5.94706 1.42206 5.49398 1.42131C5.04077 1.42016 4.67314 1.78743 4.67246 2.24042L4.66044 10.2913L4.11208 10.2906C3.17951 10.1163 2.50838 9.31299 2.50978 8.359L2.51893 2.23724C2.5196 1.78425 2.15289 1.41638 1.69981 1.41564C1.24675 1.41439 0.878968 1.78175 0.878291 2.23474L0.869145 8.3565C0.866907 9.8882 1.8088 11.2098 3.19047 11.7309L2.58222 29.8959L2.58198 29.9021C2.56194 30.6779 2.84898 31.4115 3.39016 31.9677C3.93134 32.5239 4.65681 32.8309 5.43221 32.832L5.44724 32.832C5.567 32.8322 5.68563 32.8251 5.80248 32.8109C6.44655 32.7328 7.03929 32.44 7.49934 31.9667C8.04293 31.4076 8.3295 30.6704 8.30629 29.8909L7.76642 11.7379C9.1498 11.221 10.0958 9.90213 10.098 8.37036L10.1072 2.24851C10.1078 1.79553 9.74106 1.42767 9.28798 1.42692ZM6.66651 29.9398C6.67633 30.2715 6.5544 30.5852 6.32305 30.8232C6.09171 31.0612 5.78189 31.1925 5.45033 31.1915L5.43529 31.1915C5.10504 31.191 4.79627 31.0604 4.56602 30.8237C4.33626 30.5876 4.21416 30.2764 4.222 29.9473L4.8254 11.9323L5.47757 11.9333L5.47849 11.9333L5.47922 11.9333L6.13089 11.9342L6.66651 29.9398ZM28.2 18C28.2 21.4242 25.4242 24.2 22 24.2C18.5759 24.2 15.8 21.4242 15.8 18C15.8 14.5758 18.5759 11.8 22 11.8C25.4242 11.8 28.2 14.5758 28.2 18ZM30 18C30 22.4183 26.4183 26 22 26C17.5818 26 14 22.4183 14 18C14 13.5817 17.5818 10 22 10C26.4183 10 30 13.5817 30 18Z" fill="white"/>
</svg>
